<mxfile host="app.diagrams.net" agent="Mozilla/5.0 (Windows NT 10.0; Win64; x64) AppleWebKit/537.36 (KHTML, like Gecko) Chrome/134.0.0.0 Safari/537.36" version="26.1.0">
  <diagram name="PÃ¡gina-1" id="uHti-MKFvFgVY9CFbBJo">
    <mxGraphModel dx="1707" dy="529" grid="1" gridSize="10" guides="1" tooltips="1" connect="1" arrows="1" fold="1" page="1" pageScale="1" pageWidth="827" pageHeight="1169" math="0" shadow="0">
      <root>
        <mxCell id="0" />
        <mxCell id="1" parent="0" />
        <mxCell id="tCQnC4cRJQQVM7WB0olR-3" value="" style="edgeStyle=orthogonalEdgeStyle;rounded=0;orthogonalLoop=1;jettySize=auto;html=1;" edge="1" parent="1" source="tCQnC4cRJQQVM7WB0olR-1" target="tCQnC4cRJQQVM7WB0olR-2">
          <mxGeometry relative="1" as="geometry" />
        </mxCell>
        <mxCell id="tCQnC4cRJQQVM7WB0olR-1" value="INICIO" style="ellipse;whiteSpace=wrap;html=1;aspect=fixed;" vertex="1" parent="1">
          <mxGeometry x="70" y="40" width="80" height="80" as="geometry" />
        </mxCell>
        <mxCell id="tCQnC4cRJQQVM7WB0olR-5" value="" style="edgeStyle=orthogonalEdgeStyle;rounded=0;orthogonalLoop=1;jettySize=auto;html=1;" edge="1" parent="1" source="tCQnC4cRJQQVM7WB0olR-2" target="tCQnC4cRJQQVM7WB0olR-4">
          <mxGeometry relative="1" as="geometry" />
        </mxCell>
        <mxCell id="tCQnC4cRJQQVM7WB0olR-2" value="Pedir el numero X" style="shape=parallelogram;perimeter=parallelogramPerimeter;whiteSpace=wrap;html=1;fixedSize=1;" vertex="1" parent="1">
          <mxGeometry x="50" y="160" width="120" height="60" as="geometry" />
        </mxCell>
        <mxCell id="tCQnC4cRJQQVM7WB0olR-7" value="" style="edgeStyle=orthogonalEdgeStyle;rounded=0;orthogonalLoop=1;jettySize=auto;html=1;" edge="1" parent="1" source="tCQnC4cRJQQVM7WB0olR-4" target="tCQnC4cRJQQVM7WB0olR-6">
          <mxGeometry relative="1" as="geometry" />
        </mxCell>
        <mxCell id="tCQnC4cRJQQVM7WB0olR-11" value="True" style="edgeLabel;html=1;align=center;verticalAlign=middle;resizable=0;points=[];" vertex="1" connectable="0" parent="tCQnC4cRJQQVM7WB0olR-7">
          <mxGeometry x="-0.3714" y="2" relative="1" as="geometry">
            <mxPoint as="offset" />
          </mxGeometry>
        </mxCell>
        <mxCell id="tCQnC4cRJQQVM7WB0olR-9" value="" style="edgeStyle=orthogonalEdgeStyle;rounded=0;orthogonalLoop=1;jettySize=auto;html=1;" edge="1" parent="1" source="tCQnC4cRJQQVM7WB0olR-4" target="tCQnC4cRJQQVM7WB0olR-8">
          <mxGeometry relative="1" as="geometry" />
        </mxCell>
        <mxCell id="tCQnC4cRJQQVM7WB0olR-10" value="False" style="edgeLabel;html=1;align=center;verticalAlign=middle;resizable=0;points=[];" vertex="1" connectable="0" parent="tCQnC4cRJQQVM7WB0olR-9">
          <mxGeometry x="0.0222" y="4" relative="1" as="geometry">
            <mxPoint as="offset" />
          </mxGeometry>
        </mxCell>
        <mxCell id="tCQnC4cRJQQVM7WB0olR-4" value="x%2==0" style="rhombus;whiteSpace=wrap;html=1;" vertex="1" parent="1">
          <mxGeometry x="70" y="290" width="80" height="80" as="geometry" />
        </mxCell>
        <mxCell id="tCQnC4cRJQQVM7WB0olR-19" style="edgeStyle=orthogonalEdgeStyle;rounded=0;orthogonalLoop=1;jettySize=auto;html=1;entryX=1;entryY=0.5;entryDx=0;entryDy=0;" edge="1" parent="1" source="tCQnC4cRJQQVM7WB0olR-6" target="tCQnC4cRJQQVM7WB0olR-18">
          <mxGeometry relative="1" as="geometry">
            <Array as="points">
              <mxPoint x="270" y="470" />
            </Array>
          </mxGeometry>
        </mxCell>
        <mxCell id="tCQnC4cRJQQVM7WB0olR-6" value="Mostrar que es par" style="shape=parallelogram;perimeter=parallelogramPerimeter;whiteSpace=wrap;html=1;fixedSize=1;" vertex="1" parent="1">
          <mxGeometry x="200" y="300" width="120" height="60" as="geometry" />
        </mxCell>
        <mxCell id="tCQnC4cRJQQVM7WB0olR-8" value="&lt;div style=&quot;text-align: justify;&quot;&gt;&lt;span style=&quot;background-color: transparent; color: light-dark(rgb(0, 0, 0), rgb(255, 255, 255));&quot;&gt;Mostrar que no es par&lt;/span&gt;&lt;/div&gt;" style="shape=parallelogram;perimeter=parallelogramPerimeter;whiteSpace=wrap;html=1;fixedSize=1;align=center;" vertex="1" parent="1">
          <mxGeometry x="-100" y="300" width="100" height="60" as="geometry" />
        </mxCell>
        <mxCell id="tCQnC4cRJQQVM7WB0olR-18" value="FIN" style="ellipse;whiteSpace=wrap;html=1;aspect=fixed;" vertex="1" parent="1">
          <mxGeometry x="70" y="430" width="80" height="80" as="geometry" />
        </mxCell>
        <mxCell id="tCQnC4cRJQQVM7WB0olR-20" style="edgeStyle=orthogonalEdgeStyle;rounded=0;orthogonalLoop=1;jettySize=auto;html=1;entryX=0;entryY=0.65;entryDx=0;entryDy=0;entryPerimeter=0;" edge="1" parent="1">
          <mxGeometry relative="1" as="geometry">
            <mxPoint x="-50" y="350" as="sourcePoint" />
            <mxPoint x="80" y="472" as="targetPoint" />
            <Array as="points">
              <mxPoint x="-50" y="472" />
            </Array>
          </mxGeometry>
        </mxCell>
      </root>
    </mxGraphModel>
  </diagram>
</mxfile>
